<?xml version="1.0" encoding="UTF-8"?>
<svg id="Layer_2" data-name="Layer 2" xmlns="http://www.w3.org/2000/svg" viewBox="0 0 826.84 445.03">
  <defs>
    <style>
      .cls-1 {
        fill: #fecc51;
      }

      .cls-2 {
        fill: #885439;
      }

      .cls-3 {
        fill: #fd7932;
      }

      .cls-4 {
        fill: #fea331;
      }

      .cls-5 {
        fill: none;
        stroke: #fafafa;
        stroke-linecap: round;
        stroke-linejoin: round;
        stroke-width: 5px;
      }

      .cls-6 {
        fill: #658296;
      }

      .cls-7 {
        fill: #2d363d;
      }

      .cls-8 {
        fill: #3b4b5a;
      }

      .cls-9 {
        fill: #594134;
      }
    </style>
  </defs>
  <g id="Layer_1-2" data-name="Layer 1">
    <path class="cls-1" d="M570.22,2.5l.03,81.39-13.92-30.97c-.1-.22-.15-.45-.17-.69-.12-7.59-.19-15.04-.19-22.36,0-6.22-1.28-10.35-8.01-10.44-22.25-.3-48.93.61-75.3.52-20.36-.07-36.36-.15-48.01-.23-20.2-.15-41.12.8-57.6.32-6.22-.18-10.95,1.16-11.01,8-.04,4.97-.12,9.65-.23,14.04-.01.45-.29.88-.72,1.06-4.35,1.93-8.95,3.22-13.8,3.9l.08-44.32,228.85-.22Z"/>
    <path class="cls-7" d="M224.89,370.53l-5.33,1.43c-.98.26-1.69,1.1-1.79,2.11-1.39,13.95-1.6,27.98-.61,42.1.06.84.69,1.53,1.53,1.65,5.08.73,9.84,1.1,14.32,1.09,17.04-.04,31.16-.19,42.35-.48,15.43-.37,31.46-.44,48.05-.18,1.76.04,3.36.03,4.8-.01,1.12-.03,2.02-.88,2.11-1.98,1.25-15.57.95-30.72-.91-45.46,10.57-8.59,17.25-14.14,20.03-16.65,3.62-3.26,11.26-10.62,22.92-22.07l27.8-23.42c.19-.15.07-.47-.18-.45-27.37.96-54.88.51-82.52-1.38l5.66-13.27c.03-.06,0-.12-.06-.15l-.34-.15c-.22-.1-.48,0-.61.22-6.04,11.33-13.81,21.67-23.31,31.05-21.19,20.89-45.83,36.22-73.92,46.01ZM538.68,332.38c12.18,10.04,23.72,20.61,34.61,31.75,2.01,2.05,5,4.35,8.98,6.87-.26,1.91-.43,3.86-.51,5.81-.67,16.55-.98,26.15-.91,28.78.11,4.01.34,6.99.7,8.99.29,1.61,1.61,2.85,3.24,3.03,3.04.34,7.74.55,14.06.63.18.01,11.77-.25,34.78-.78,3.47-.08,9.79.21,18.94.87,10.78.77,21.49.98,32.13.61,1.64-.05,4.13-.37,7.5-.96,1.02-.18,1.82-.98,1.98-2,2.08-13.16.44-23.42-1.01-41.83-.03-.41-.26-.78-.62-.98-2.52-1.35-4.63-2.15-6.33-2.4-8.49-3.98-16.7-7.83-24.62-11.58-6.54-3.08-12.4-6.4-17.6-9.94-9.28-6.35-19.08-12.94-26.86-21.11-6.17-5.76-11.72-12.06-16.65-18.9-.26-.36-.48-.74-.66-1.14-1.4-3.07-3.06-5.93-4.97-8.58-.1-.14-.19-.29-.28-.44l-4.41-8.8c-.25-.5-.74-.81-1.29-.84-30.21-1.28-59.48-.65-87.81,1.93-11.41,1.03-21.51,3.33-30.29,6.9-18.9,7.66-24.59,24.4-25.07,43.54-.29,11.15.28,23.61,1.71,37.37.03.36.33.63.7.63,13.95.14,24.55.44,31.82.91,17.46,1.12,35.64,5.53,54.55,13.26,2.7,1.1,4.9,1.83,6.61,2.19.94.21,1.8-.54,1.75-1.49-.45-10.38-.37-30.79-1.5-48.26-.28-4.38-2.05-9.2-2.68-14.03M57.52,52.62c-2.27.01-5.05-.15-8.33-.47-3.18-.3-5.93-.11-8.29.58-.98.29-1.29,1.53-.56,2.23,4.02,3.9,6.93,8.32,11.33,12.31,13.46,12.21,23.4,20.96,36.59,28.67,9.16,5.34,15.87,9.07,20.18,11.21,5.71,2.82,17.02,7.46,33.88,13.92,7.82,2.99,19.07,6.17,33.73,9.53,14.88,3.41,37.57,5.27,48.46,7.39,2.27.44,4.6.59,7.01.44.4-.03.7-.36.7-.74l-.08-45.64.45-37.77c.01-.91-.59-1.69-1.47-1.91-1.02-.25-2.35-.37-4.01-.36-28.9.14-56.87.12-83.95-.03-38.99-.23-67.54-.01-85.65.65M257.34,2.72c1.89,7.56,2.62,15.32,2.16,23.27-1.07-.12-1.93.01-2.57.39-.39.22-.63.63-.62,1.09.15,20.17.15,40.34.01,60.5-.12,19.77.19,39.65.98,59.66-1.18,10.24-1.43,20.58-.76,31.01.06.85.7,1.54,1.56,1.67,7.72,1.09,13.09,1.89,16.12,2.37,12.47,1.98,23.23,7.31,32.27,15.99,2.97,2.86,5.36,5.14,7.16,6.82.43.4,1.12.1,1.12-.48l.05-96.65,26.09,34.75c.17.22.52.11.54-.17l.14-7.82.1,11.06c.01,20.91-.04,41.79-.17,62.62-.07,13.62,6.66,20.43,20.21,20.45,116.68.1,178.17.12,184.49.1,6.65-.04,10.84-.4,12.56-1.07,7.7-3.04,11.56-8.72,11.63-17.03.08-10.93.11-21.86.08-32.78,2.45-8.83,3.85-17.82,4.21-26.97.01-.45.15-.88.4-1.27,6.7-10.57,14.07-20.61,22.1-30.11.37,7.85.3,18.26-.19,31.23-.4,10.34-.21,23.54.55,39.6.15,2.99.08,5.31-.18,6.97-.04.26.11.5.36.58.23.08.51-.01.63-.25,2.62-4.86,6.32-8.04,9.17-11.5,15.79-19.19,33.91-35.33,54.35-48.42,7.64-4.9,16.29-8.58,24.15-13.11,16.11-9.27,30.77-15.09,49.73-22.35,6.75-2.57,13.12-3.7,20.14-5.85,9.66-2.95,18.27-4.46,28.51-5.98.91-.12,1.71-.7,2.13-1.53.8-1.57,2.95-5.65,6.43-12.24,6.48-12.27,8.83-25.03,7.35-38.85l.03-11.15c.01-.69-.55-1.25-1.24-1.24l-186.08.23-1.68-.48c-.37-.1-.63-.43-.66-.81-.4-7.42-1.57-14.8-3.54-22.11l216.22-.18c.45,0,.81.36.83.81.26,28.91.12,47.53-.4,55.85-.21,3.26-1.57,7.99-4.1,14.14-4.78,11.61-10.56,23.38-17.35,35.32-.58,1.02-1.6,1.71-2.75,1.89-33.4,5-66.84,16.89-96.22,31.64-15.6,7.83-30.45,17.06-44.57,27.69-32.08,24.16-62.52,60.48-50.73,103.26,4.25,15.46,17.79,31.89,29.5,42.12,22.91,19.98,49.21,33.26,78.9,39.85,1.23.28,2.11,1.36,2.11,2.63v83.77c0,.5-.4.89-.89.89h-143c-.56,0-1.13-.19-1.58-.55-19.62-15.27-42.02-25.88-67.2-31.85-41.94-9.93-83.03-7.52-123.28,7.26-15.02,5.52-28.82,13.18-41.39,22.99-1.38,1.07-3.04,1.65-5,1.75-6.4.32-12.36.47-17.9.45-28.02-.1-67.83-.11-119.43-.01-1.98.01-3.59-.1-4.82-.33-.59-.11-1.02-.62-1.02-1.23v-83.59c0-1.12.76-2.09,1.84-2.35,9.49-2.38,13.63-2.96,22.18-5.88,25.13-8.56,46.85-22.39,65.19-41.48,5.85-6.1,10.92-12.6,15.21-19.51,4.01-6.46,6.79-14.66,8.37-24.63,2.46-15.57-1.2-29.66-10.99-42.28-8.87-11.44-23.18-16.78-37.43-17.09-7.12-.17-14.94-.14-23.46.1-.83.03-1.5-.63-1.5-1.46v-13.93c0-.63-.48-1.16-1.1-1.23-11.52-1.23-21.79-2.62-30.84-4.19-3.62-.63-12.79-2.86-27.52-6.69-10.7-2.78-19.69-5.66-26.94-8.62-23.45-9.57-44.69-20.97-63.73-34.21C52.84,113.38,27.67,84.3,11.44,51.38c-3.59-7.28-6.57-14.62-8.91-22.04-.12-.39.17-.77.56-.77h228.13c.72,0,1.31-.59,1.31-1.31V3.45c0-.39.32-.7.7-.7l24.11-.03"/>
    <path class="cls-9" d="M298.99,2.79l3.94,23.28-43.42-.08c.45-7.94-.28-15.71-2.16-23.27l41.65.07Z"/>
    <path class="cls-2" d="M341.38,2.72l-.08,44.32.08,35.77c-8.15-7.1-15.57-11.61-26.28-11.98-.39-.01-.7.29-.7.67l-.26,17.72c-1.87-11.52-4.31-22.99-7.3-34.39-.81-3.07-1.57-8.05-2.27-14.93l8.78.06c.72.01,1.29-.56,1.29-1.28v-11.41c0-.72-.58-1.29-1.29-1.29l-10.42.1-3.94-23.28,42.39-.07Z"/>
    <path class="cls-2" d="M607.16,2.8c1.97,7.31,3.14,14.69,3.54,22.11.03.39.29.72.66.81l1.68.48-14.08.08c-.61,0-1.12.45-1.2,1.05-.66,4.58-.37,8.74.88,12.45-.26,7.7-1.32,14.09-3.15,19.19-4.52,12.53-14.94,23.79-25.11,34.12l-.12-9.21-.03-81.39,36.94.3Z"/>
    <path class="cls-4" d="M570.25,83.89l.12,9.21.21,19.26.08,56.45c-2.34-9.62-5.04-18.35-8.1-26.19-1.21-3.11-3.29-7.37-6.22-12.75-.04-.08-.07-.17-.07-.26l-.14-40.27c0-.37-.5-.5-.67-.17-9.84,18.41-22.7,34.46-38.59,48.16l-.32-4.03c-.03-.4-.37-.72-.78-.72h-21.17c-.34,0-.62-.32-.56-.66l1.69-11.35,2.13-14.1c.1-.65.65-1.12,1.29-1.12h24.51c.91,0,1.64-.73,1.64-1.64v-20.5c0-.66-.54-1.2-1.2-1.2h-20.31c-.48,0-.84-.43-.77-.91l4.39-29.15c.08-.51-.32-.98-.84-.98h-24.37c-.56,0-1.05.41-1.13.98l-4.43,29.37c-.08.55-.56.95-1.12.95h-26.3c-.45,0-.84-.34-.91-.8-.11-.92-.03-1.82.26-2.67l4.25-26.92c.08-.52-.32-.99-.85-.99h-23.65c-.84,0-1.54.61-1.68,1.42l-5.05,29.78-25.39.32c-.44.01-.8.37-.8.81v20.85c0,.73.59,1.34,1.32,1.32l4.61-.03,15.12.32c.55.01.98.52.89,1.07l-3.59,23.78c-.19,1.32-1.34,2.3-2.67,2.29l-19.38-.18c-5.08-3.95-10.45-7.38-16.14-10.27-6.46-3.28-12.9-4.32-18.32,1.45-5.58,5.92-8.47,13.11-12.53,21.69-.7,1.49-1.72,1.69-3.04.63l-.1-11.06-.21-52.28-.08-35.77c4.85-.67,9.44-1.97,13.8-3.9.43-.18.7-.61.72-1.06.11-4.39.19-9.07.23-14.04.07-6.84,4.79-8.18,11.01-8,16.48.48,37.41-.47,57.6-.32,11.65.08,27.65.17,48.01.23,26.36.08,53.05-.83,75.3-.52,6.73.08,8.01,4.21,8.01,10.44,0,7.32.07,14.77.19,22.36.01.23.07.47.17.69l13.92,30.97Z"/>
    <path class="cls-6" d="M259.5,25.99l43.42.08,10.42-.1c.72,0,1.29.58,1.29,1.29v11.41c0,.72-.58,1.29-1.29,1.28l-8.78-.06c-8.47-.21-16.88.17-25.26,1.1-2.27.25-4.2.83-5.78,1.73-1.36.77-2.29,2.13-2.49,3.69l-13.73,101.18c-.78-20.01-1.1-39.89-.98-59.66.14-20.16.14-40.33-.01-60.5-.01-.45.23-.87.62-1.09.65-.37,1.5-.51,2.57-.39Z"/>
    <path class="cls-6" d="M613.04,26.21l186.08-.23c.69-.01,1.25.55,1.24,1.24l-.03,11.15c-.08.67-.48,1.01-1.18,1.02-66.58.21-133.42.33-200.51.4-1.25-3.7-1.54-7.86-.88-12.45.08-.59.59-1.05,1.2-1.05l14.08-.08Z"/>
    <path class="cls-8" d="M800.33,38.37c1.47,13.82-.87,26.59-7.35,38.85-3.48,6.6-5.63,10.67-6.43,12.24-.43.83-1.23,1.4-2.13,1.53-10.24,1.51-18.85,3.03-28.51,5.98-7.02,2.15-13.4,3.28-20.14,5.85-18.96,7.26-33.62,13.08-49.73,22.35-7.86,4.53-16.51,8.21-24.15,13.11-20.44,13.09-38.56,29.23-54.35,48.42-2.85,3.46-6.55,6.64-9.17,11.5-.12.23-.4.33-.63.25-.25-.08-.4-.32-.36-.58.26-1.65.33-3.98.18-6.97-.76-16.05-.95-29.26-.55-39.6.5-12.97.56-23.38.19-31.23l-.15-21.73c-.01-.36-.34-.62-.7-.54-8.73,2.08-17.11,5.14-25.14,9.17-.39.19-.63.59-.63,1.02v4.36s-.19-19.26-.19-19.26c10.17-10.33,20.6-21.59,25.11-34.12,1.83-5.11,2.89-11.5,3.15-19.19,67.09-.07,133.93-.19,200.51-.4.7-.01,1.1-.34,1.18-1.02Z"/>
    <path class="cls-8" d="M304.56,39.91c.7,6.87,1.46,11.85,2.27,14.93,2.99,11.4,5.42,22.87,7.3,34.39l.69,19.1-.05,96.65c0,.58-.69.88-1.12.48-1.8-1.68-4.19-3.95-7.16-6.82-9.05-8.67-19.8-14-32.27-15.99-3.03-.48-8.4-1.28-16.12-2.37-.85-.12-1.5-.81-1.56-1.67-.67-10.42-.43-20.76.76-31.01l13.73-101.18c.21-1.56,1.13-2.92,2.49-3.69,1.58-.91,3.51-1.49,5.78-1.73,8.38-.94,16.8-1.31,25.26-1.1Z"/>
    <path class="cls-2" d="M448.59,78.82c-9.18-.61-18.19.5-26.98,3.29l5.05-29.78c.14-.81.84-1.42,1.68-1.42h23.65c.54,0,.94.47.85.99l-4.25,26.92Z"/>
    <path class="cls-9" d="M495.73,120.58c-9.42-.78-18.17-2.01-23.63-9.89-.12-.18-.4-.11-.43.11-.11,1.06-.41,1.96-.91,2.68l.83-6.84c.06-.43-.19-.83-.59-.98-.84-.3-1.83-.4-3-.29-5.74-2.12-11.04-3.08-15.89-2.88-16.15.69-29.57.69-40.28,0-3.62-.23-7.12.72-10.48,2.88l-4.61.03c-.73.01-1.32-.59-1.32-1.32v-20.85c0-.44.36-.8.8-.81l25.39-.32c8.8-2.8,17.8-3.9,26.98-3.29-.29.85-.37,1.75-.26,2.67.07.45.45.8.91.8h26.3c.55,0,1.03-.4,1.12-.95l4.43-29.37c.08-.56.56-.98,1.13-.98h24.37c.52,0,.92.47.84.98l-4.39,29.15c-.07.48.29.91.77.91h20.31c.66,0,1.2.54,1.2,1.2v20.5c0,.91-.73,1.64-1.64,1.64h-24.51c-.65,0-1.2.47-1.29,1.12l-2.13,14.1Z"/>
    <path class="cls-6" d="M232.15,92.04l-.29,4.58c-.01.18-.15.32-.32.32h-.01c-.17.03-.32-.11-.33-.28l-.99-16.36c-.07-1.23-1.01-2.23-2.22-2.41-2.52-.37-4.86-.63-7.01-.78-40.85-3.1-83.34-8.37-127.47-15.85-7.72-1.31-19.72-4.2-35.99-8.65,18.1-.66,46.66-.88,85.65-.65,27.08.15,55.06.17,83.95.03,1.65-.01,2.99.11,4.01.36.88.22,1.49,1.01,1.47,1.91l-.45,37.77Z"/>
    <path class="cls-8" d="M57.52,52.62c16.27,4.45,28.26,7.34,35.99,8.65,44.14,7.48,86.63,12.75,127.47,15.85,2.15.15,4.49.41,7.01.78,1.21.18,2.15,1.18,2.22,2.41l.99,16.36c.01.17.17.3.33.28h.01c.17,0,.3-.14.32-.32l.29-4.58.08,45.64c0,.39-.3.72-.7.74-2.41.15-4.74,0-7.01-.44-10.89-2.12-33.58-3.98-48.46-7.39-14.66-3.36-25.91-6.54-33.73-9.53-16.87-6.46-28.17-11.1-33.88-13.92-4.31-2.13-11.03-5.87-20.18-11.21-13.19-7.71-23.13-16.45-36.59-28.67-4.41-3.99-7.31-8.41-11.33-12.31-.73-.7-.41-1.94.56-2.23,2.35-.69,5.11-.88,8.29-.58,3.28.32,6.06.48,8.33.47Z"/>
    <path class="cls-9" d="M341.38,82.81l.21,52.28-.14,7.82c-.01.28-.37.39-.54.17l-26.09-34.75-.69-19.1.26-17.72c0-.39.32-.69.7-.67,10.71.37,18.13,4.87,26.28,11.98Z"/>
    <path class="cls-3" d="M570.66,168.81l-.18,9.61c.03,10.92,0,21.85-.08,32.78-.07,8.32-3.94,13.99-11.63,17.03-1.72.67-5.91,1.03-12.56,1.07-6.32.03-67.81,0-184.49-.1-13.55-.01-20.28-6.83-20.21-20.45.12-20.83.18-41.7.17-62.62,1.32,1.06,2.34.85,3.04-.63,4.06-8.58,6.95-15.76,12.53-21.69,5.42-5.77,11.87-4.72,18.32-1.45,5.69,2.89,11.06,6.32,16.14,10.27l-4.41.11c-.34.01-.62.29-.62.63v21.69c0,.59.48,1.07,1.07,1.07h19.84c.62,0,1.1.56,1.01,1.18l-4.32,28.62c-.08.59.37,1.13.98,1.13h23.58c.98,0,1.82-.72,1.97-1.69l4.24-28.09c.1-.67.69-1.18,1.38-1.18h26.32c.44,0,.78.41.7.85l-5.25,28.9c-.12.67.4,1.29,1.09,1.29h24.12c.39,0,.72-.28.78-.65l5.25-28.87c.14-.8.84-1.38,1.65-1.38h24.74c.8,0,1.45-.66,1.43-1.46l-.4-17.49c15.89-13.7,28.75-29.75,38.59-48.16.18-.33.67-.21.67.17l.14,40.27c0,.1.03.18.07.26,2.93,5.38,5.01,9.64,6.22,12.75,3.06,7.83,5.75,16.56,8.1,26.19Z"/>
    <path class="cls-9" d="M597.19,120.07c-8.03,9.5-15.39,19.54-22.1,30.11-.25.39-.39.81-.4,1.27-.36,9.16-1.76,18.15-4.21,26.97l.18-9.61-.08-56.45v-4.36c-.01-.43.23-.83.62-1.02,8.03-4.03,16.41-7.09,25.14-9.17.36-.08.69.18.7.54l.15,21.73Z"/>
    <path class="cls-7" d="M468,105.38l-22.83.04c-.73,0-1.36.54-1.47,1.27l-3.76,24.93c-.11.72.44,1.36,1.16,1.36h25.22c.66,0,1.24-.48,1.35-1.14l3.1-18.35c.5-.73.8-1.62.91-2.68.03-.22.3-.29.43-.11,5.45,7.88,14.21,9.1,23.63,9.89l-1.69,11.35c-.05.34.22.66.56.66h21.17c.41,0,.76.32.78.72l.32,4.03.4,17.49c.01.8-.63,1.46-1.43,1.46h-24.74c-.81,0-1.51.58-1.65,1.38l-5.25,28.87c-.07.37-.4.65-.78.65h-24.12c-.69,0-1.21-.62-1.09-1.29l5.25-28.9c.08-.44-.26-.85-.7-.85h-26.32c-.69,0-1.28.51-1.38,1.18l-4.24,28.09c-.15.98-.99,1.69-1.97,1.69h-23.58c-.61,0-1.06-.54-.98-1.13l4.32-28.62c.1-.62-.39-1.18-1.01-1.18h-19.84c-.59,0-1.07-.48-1.07-1.07v-21.69c0-.34.28-.62.62-.63l4.41-.11,19.38.18c1.34.01,2.48-.96,2.67-2.29l3.59-23.78c.08-.55-.34-1.06-.89-1.07l-15.12-.32c3.36-2.16,6.86-3.11,10.48-2.88,10.71.69,24.13.69,40.28,0,4.85-.21,10.15.76,15.89,2.88Z"/>
    <path class="cls-4" d="M468,105.38c1.17-.11,2.16-.01,3,.29.4.15.65.55.59.98l-.83,6.84-3.1,18.35c-.11.66-.69,1.14-1.35,1.14h-25.22c-.72,0-1.27-.65-1.16-1.36l3.76-24.93c.11-.73.74-1.27,1.47-1.27l22.83-.04Z"/>
    <path class="cls-8" d="M617.16,328.14c-.3,4.01,2.99,7.1,5.25,9.69.85.98.98,2.01.39,3.11-.21.4-.39.62-.52.67-1.09.41-1.39,1.8-.58,2.63l11.33,11.55c.43.44.06,1.17-.55,1.07-3.4-.52-7.26-.66-11.56-.41-8.15.45-17.03.36-23.96.3-9.4-.07-14.79-.22-16.12-.45-4.93-.87-9.82-3.02-14.65-6.44-8.71-6.17-18.05-12.42-28-18.75-.29-.18-.61.17-.41.44.18.26.5.54.92.83.63,4.83,2.41,9.65,2.68,14.03,1.13,17.47,1.05,37.88,1.5,48.26.06.95-.81,1.69-1.75,1.49-1.71-.36-3.91-1.09-6.61-2.19-18.9-7.72-37.09-12.14-54.55-13.26-7.27-.47-17.87-.77-31.82-.91-.37,0-.67-.28-.7-.63-1.43-13.75-2-26.22-1.71-37.37.48-19.14,6.17-35.88,25.07-43.54,8.78-3.57,18.88-5.87,30.29-6.9,28.33-2.57,57.6-3.21,87.81-1.93.55.03,1.05.34,1.29.84l4.41,8.8c.08.15.18.3.28.44,1.91,2.64,3.57,5.51,4.97,8.58.18.4.4.78.66,1.14,4.93,6.84,10.48,13.15,16.65,18.9Z"/>
    <path class="cls-6" d="M317.46,306.83c-6.04,13.19-13.62,26.77-23.54,37.44-2.68,2.89-6.17,6.94-10.42,12.13-.15.19-.01.47.23.47h50.27c.19,0,.4-.05.56-.17,4.31-2.97,9.29-6.18,14.97-9.62,8.36-5.05,14.83-10.59,21.79-16.14.34-.28.85-.07.92.36l.12.78c-11.66,11.46-19.3,18.81-22.92,22.07-2.78,2.51-9.46,8.05-20.03,16.65-32.05.34-64.03.4-95.93.17-.28,0-1.72.12-4.35.39-1.72.17-3.13-.11-4.24-.81,28.09-9.79,52.73-25.13,73.92-46.01,9.5-9.38,17.26-19.72,23.31-31.05.12-.22.39-.32.61-.22l.34.15c.06.03.08.1.06.15l-5.66,13.27Z"/>
    <path class="cls-8" d="M317.46,306.83c27.65,1.89,55.15,2.34,82.52,1.38.25-.01.37.3.18.45l-27.8,23.42-.12-.78c-.07-.43-.58-.63-.92-.36-6.97,5.55-13.44,11.08-21.79,16.14-5.67,3.44-10.66,6.65-14.97,9.62-.17.11-.37.17-.56.17h-50.27c-.25,0-.39-.28-.23-.47,4.25-5.19,7.74-9.24,10.42-12.13,9.93-10.67,17.5-24.25,23.54-37.44Z"/>
    <path class="cls-6" d="M617.16,328.14c7.78,8.16,17.58,14.76,26.86,21.11,5.19,3.54,11.06,6.86,17.6,9.94,7.92,3.75,16.12,7.6,24.62,11.58l-103.96.23c-3.98-2.52-6.97-4.82-8.98-6.87-10.89-11.14-22.43-21.71-34.61-31.75-.43-.29-.74-.56-.92-.83-.19-.28.12-.62.41-.44,9.95,6.33,19.29,12.58,28,18.75,4.83,3.43,9.72,5.58,14.65,6.44,1.34.23,6.72.39,16.12.45,6.93.06,15.81.15,23.96-.3,4.31-.25,8.16-.11,11.56.41.61.1.98-.63.55-1.07l-11.33-11.55c-.81-.83-.51-2.22.58-2.63.14-.06.32-.28.52-.67.59-1.1.47-2.13-.39-3.11-2.26-2.59-5.55-5.69-5.25-9.69Z"/>
    <path class="cls-8" d="M582.27,371l103.96-.23c1.71.25,3.81,1.05,6.33,2.4.36.19.59.56.62.98,1.45,18.41,3.08,28.67,1.01,41.83-.17,1.02-.96,1.82-1.98,2-3.37.59-5.86.91-7.5.96-10.64.37-21.35.17-32.13-.61-9.16-.66-15.47-.95-18.94-.87-23.01.54-34.6.8-34.78.78-6.32-.08-11.01-.29-14.06-.63-1.62-.18-2.95-1.42-3.24-3.03-.36-2-.59-4.98-.7-8.99-.07-2.63.23-12.23.91-28.78.08-1.96.25-3.9.51-5.81Z"/>
    <path class="cls-8" d="M224.89,370.53c1.12.7,2.52.98,4.24.81,2.63-.26,4.08-.39,4.35-.39,31.9.23,63.88.18,95.93-.17,1.86,14.75,2.16,29.89.91,45.46-.08,1.1-.99,1.96-2.11,1.98-1.45.04-3.04.06-4.8.01-16.59-.26-32.62-.19-48.05.18-11.19.29-25.3.44-42.35.48-4.47.01-9.24-.36-14.32-1.09-.84-.12-1.47-.81-1.53-1.65-.99-14.13-.78-28.16.61-42.1.1-1.01.81-1.84,1.79-2.11l5.33-1.43Z"/>
    <path class="cls-5" d="M824.21,3.44c-.01-.45-.37-.81-.83-.81l-216.22.18-36.94-.3-228.85.22-42.39.07-41.65-.07-24.11.03c-.39,0-.7.32-.7.7v23.81c0,.72-.59,1.31-1.31,1.31H3.09c-.4,0-.69.39-.56.77,2.34,7.42,5.31,14.76,8.91,22.04,16.23,32.92,41.4,62,70.93,82.53,19.04,13.25,40.28,24.65,63.73,34.21,7.26,2.96,16.25,5.84,26.94,8.62,14.73,3.83,23.9,6.06,27.52,6.69,9.05,1.57,19.32,2.96,30.84,4.19.62.07,1.1.59,1.1,1.23v13.93c0,.83.67,1.49,1.5,1.46,8.52-.23,16.34-.26,23.46-.1,14.25.3,28.57,5.65,37.43,17.09,9.79,12.63,13.45,26.71,10.99,42.28-1.58,9.97-4.36,18.17-8.37,24.63-4.3,6.91-9.36,13.41-15.21,19.51-18.34,19.1-40.06,32.92-65.19,41.48-8.55,2.92-12.69,3.5-22.18,5.88-1.09.26-1.84,1.24-1.84,2.35v83.59c0,.61.43,1.12,1.02,1.23,1.23.23,2.84.34,4.82.33,51.6-.1,91.42-.08,119.43.01,5.53.01,11.5-.14,17.9-.45,1.96-.1,3.62-.67,5-1.75,12.57-9.82,26.36-17.47,41.39-22.99,40.24-14.77,81.34-17.18,123.28-7.26,25.18,5.96,47.58,16.58,67.2,31.85.45.36,1.02.55,1.58.55h143c.5,0,.89-.4.89-.89v-83.77c0-1.27-.88-2.35-2.11-2.63-29.7-6.58-55.99-19.87-78.9-39.85-11.72-10.23-25.25-26.66-29.5-42.12-11.79-42.78,18.66-79.1,50.73-103.26,14.11-10.63,28.97-19.85,44.57-27.69,29.38-14.75,62.82-26.64,96.22-31.64,1.16-.18,2.18-.87,2.75-1.89,6.79-11.94,12.57-23.71,17.35-35.32,2.53-6.15,3.9-10.88,4.1-14.14.52-8.32.66-26.93.4-55.85Z"/>
  </g>
</svg>