<?xml version="1.0" encoding="UTF-8"?>
<svg id="Layer_1" xmlns="http://www.w3.org/2000/svg" version="1.1" viewBox="0 0 600 600" width="600" height="600">
  <!-- Generator: Adobe Illustrator 29.8.3, SVG Export Plug-In . SVG Version: 2.1.1 Build 3)  -->
  <defs>
    <style>
      .st0 {
        fill: #110f0f;
      }
    </style>
  </defs>
  <path class="st0" d="M264.3,175.5c-2.2-6.6,6.2-18.7-6.8-21.1,0-11.3-3.7-12.6-13.4-12.6,11.3-23.1-10.1-11.5-23.2-16.8-21-28.7,43-81.9,56.6-42.4,1.9,6.2-5.4,6-7.2,1.6-6.5-29.5-43,21-36.5,37.5,8.1,4.6,22,2.6,19.9,17,6.6.2,10.3,6.8,8.6,12.8,7,5.7,10.4,17.7,1.9,24.2Z"/>
  <path class="st0" d="M103.2,103.4c-26.6-24.7,28.8-47.2,48.6,20.4,8.1-1.8,18.7-9.5,28.5-.4,6.9-2.4,20.4-3.2,25.9,1.8-7.5,1.6-16.3-3-23.2,3.4-7.9-.4-15.7-8.3-23.9-2-7,3.8-11.5,9.5-15.6,3.5,11.2-11.5-14.4-40-25.3-45.4,4.3,8.4,11.5,14.9,14.4,24.6,5.6,21.8,10.8,11.7-3.9,29.6.7,12.5-14.4,15.2-16.3,25.6.2,3.5,1.8,14.7-4.4,10.2-6.3-9.9-1.1-22,10.2-25.2,6.2-5.6,5-15.8,12.9-21.4,3.3-19.2-27-67.2-27.9-24.7Z"/>
  <path class="st0" d="M531.1,223.2c1.8,17-11.9,10.4-13.2,18.3,8.6,7.9,14.2,26.8.2,31.4,1.1,9.4,3.6,19.5,1.3,28.3-12.3,10.7-.3,6.1,5.2,13.8,1.7,6.6-4.1,12.3-2.9,17.7,3.2,1.8,6.6,5.6,3.2,9.3-4.2,3.4-5.6,6.2,0,9.3,12.5,13.7-13,18.8-5.2,32.1,6.8,7.8,5.7,13.3.6,21.5,3,19.8-9.9,39-1.4,57.2-4,7.9-27.8,25.5-31.7,9.9-.4-8.9-14.7-18-3.1-25.7-.1-10-23.8-.7-11.4-20.5-13.8-5.3-12.4-14.6-4.7-25-18.9-9.4,7.4-25.1-10.6-35.6-11.7,19.8,3,31-1.9,52.4,5.8,21.8-35.7,36.6-29.5,11,4.4,5.6,6,11.4,15.5,7.7,24.2-19.3-2.7-57.4,12.9-80.4,3.4-16-1.4-3.4-12.3-2.1-3.1,8.7-10,12.5-17.4,5.7-20.8,9.4-20.7,24.8-1.6,38.8,5.9,4.9,5.6,22.9-1.4,25.2-1.1-8.1,2.5-18.4-5.7-23.9-23.7-12.8.9-31.7-28.8-29.1-2.7,2.4-8,5.9-11.8,6.9,14.4,32.1-12.3,8.9-6.6,26.6,9.4,5.8,4.8,19,3.2,26.1,3.5,18.1,19.7-10.3,19.3,26.3,19.4,2.2,10.5,17.6,8.7,28.9,4.5,6.5,8.9,22.1-2.6,26.1,4.1,10.8.4,29.5-14.6,29.6-19.2-9.4,5-2.2,8.5-10.5,8-8-9.4-22.5,3.6-26.4,16.1-8.6-6.9-17.1,3.9-36.1,1.4-10.3-13.5-4.4-14.3-12.3,4.6-23.5-6.8-10.4-16.9-17.9-1.9-9.6,4.6-20.8.2-29.4-3.3-3.7-9.3-10.2-3.1-13.5,9.3-4,14.3-9.2,4.6-14.5-1.4-9.7,14.6-10.8,3.9-22.9-.6-1.2.9-2.5,2-1.7,14.6,18.2,35.9,7.8,49.2-3.6,6.9,4.9,11.9,3.9,13.6-5.4,6.9.6,12.1-2,16.6-8,7.3.1,11.9-8.2,13.3-19.3-1.1-3.5-3.6-5.5-7.3-5.9-9.3-8.8,10-3.9,10.7,4,4.5,7.5-3.6,15.8-4.5,22,4.2,4.7,9.3,10.2,4.3,16.4-6.2,5.3-11.2,10.8-3.3,17.5,6.2,4.3-3.1,16.1-2.1,21.2,2.1,5.4,12,5.4,8.5,11.4-16.4,13.9,1.6,9.4,6.3,16.3-12.9,21.8-.4,9.2,8.4,20.9-3.1,18.4-7.5,8.3,1.6,26.7-.2,13.3,24.6-3.6,22.3-12.4-5.7-19.4,5.1-36.1,1.3-54.9,2.7-7,6.9-9.5,3.7-15.2-14.1-15.8-.6-17,6.8-28.6,1.2-4.8-4.4-7.3-8.1-7.4-14.4-3.5,11.5-10.2,2.2-16.6-1.5-.5-5.2-.4-4.7-2.8,20.6-30.1-27.9-11.3,2.7-37,2.8-12.9-11-24.7.6-30.7,12-8.1-12.1-19.9-3.9-28.5,20.9-9.1,3.5-21.4,16.2-19.4,12.8,1.7-3.4-17.5,5.8-16.7,17.6,4.5-.7-7.2.7-13.1,15.7-36-6.5-13.7-27.7-20.9-23.4-3.5-14,25.8-13.5,36.4-7.4,4.8-14.3,15.9-19.5,19.9-5.4-10.8-18-7.4-25.2-1.1.1-16.4-17.4-12-28-8.9,1.5-18.7-15.7-22.6-27.8-12-9.3-14.9-19.4-4-31.7-.7,12.9-23.1-6.9-16.9-20.7-9.4,1.2-7.9,29.3-17.9,31.7-1.7,9.7-3.9,16.5.9,24.1,5.5,9.1-5.1,18-6.5,26.1.3,4.4,20.9-1.7,9.5,18,10.6,22,16.1,15.8-3,33.3,8.9,27.3-21.1-8.1-67.7,48.5-49.7,24.2-6.6,28.6,3.5,18.9,24.4,4,10.4,8.6,19.6-3.6,22.3,0,7.2.3,11.9-8.1,13.1ZM463.9,356.4c7.4-3.7,1.1-17.4-4.8-12.6,0,2.8-.6,15.2,4.8,12.6Z"/>
  <path class="st0" d="M182,189.6c-6,2.9-4.9-16.2-.6-17,2.4,5.4.4,11.7.6,17Z"/>
  <path class="st0" d="M262.7,183.2c59.2-27.3,108.1,18.8,11,9.4,78.7-7.7,50.1-18.1-11-9.4Z"/>
  <path class="st0" d="M193.8,193.2c-4.3,1.7-4.8-15,.2-14.8,3.5,3.1.1,12-.2,14.8Z"/>
  <path class="st0" d="M83.2,208.4c-87.1,23.2-16.5-51.2,23.9-20-32.9-15.1-106.5,26.3-23.9,20Z"/>
  <path class="st0" d="M208.2,201.1c-5.1,2.7-2.6-10.1,1.1-5.7,0,0-1.1,5.7-1.1,5.7Z"/>
  <path class="st0" d="M144.1,200.2c17.4-1.9,22.2,28,5.3,31.6-17.1,2.1-22.4-27.7-5.3-31.6ZM154.2,222.6c9.8-25.8-27.9-19.4-12.1-.7,4.5-7.8,8.2-1.2,12.1.7Z"/>
  <path class="st0" d="M232,205.9c14.7,14.6-13.1,41.2-23.4,19.7-8.7-15.3,10-34.8,23.4-19.7ZM225.4,225.5c16.6-3.9-2.9-31.9-13.2-15.4-3.6,6.5-1.5,22.5,6.2,16.8-2.1-7.8,5.5-11,7-1.4Z"/>
  <path class="st0" d="M274.3,211.1c-24.4,22.4-24,55.4-52.6,73.9-10.9,2.6,4.9-8.5,7.1-10.6,25.7-22.3,12.8-47.9,45.5-63.3Z"/>
  <path class="st0" d="M372.4,531.6c-6.2,1.7-11.4-1-13.1-8.5-15.2-10.1-10-8.2-8.4-22.1-31.6-4.4,4.2-25.5-12.4-28.8-18,2.5-17.1-6.3-13.1-17.5-10.4-3.5-7.5-13.2,0-18.1-18.4-27.6,8.6-14.1-4.3-33,3.6-19.9-3.1-9.5-15-18.4-10.5-1-7.7,5.8-19.6-.6-9.2,7.6-12.5,2.6-19.3-3.6-4.6,3.7-11.5,3.5-16.9,4.3-13.5,8.6,3.9,28.9-15.1,32.1-8.8,9.4-6.9,29.7-24.1,32.9-2.5,0-8.1.2-7.7,3.9,2.5,10.8-6.2,16-14.3,17.6-5.6,6.8-6.4,14.6-15.2,18.3,3.6,14.2,3.3,19.3-10.6,26.5.4,6.1-3.2,15.3-9.1,15.4,4.5-5.2,5.1-13.4,5.4-19.5,16.9-5.6,5.9-22.6,18.7-29.8,6-9.7,12.2-14.1,21.4-21.3.2-5.5-.8-13.9,5.5-16.7,11.1-4.9,22.9-8.9,22.7-21.9-3.2-10,12.9-9.1,13.2-19-8.1-17.1,8-16.9,8.8-25.2-32.5,16-14.1-8.3-38.1-4.6-12.8-10.6,4.8-13.3-19.7-18.1-9.9,1.5-6.6,12.6-5.2,18.7-11.6,8.2-9.5,25.3,1.8,31-14,5.4-18.3,43.3-22.1,38.6-1.1-11.6,7.3-28.3,13.7-37.6-8.6-8.8-9.6-27.4,1.4-34.4-2.6-7.2,1-16.9,6.7-23,9.7-21.3-18.3-.5-3.6-33.5-44.1,2.9-44-47.4-61.9-74.6-2.1-4.4-17-13.2-11.9-14.3,36.9,21,30.3,104.1,87.5,81.3,3-1.1,9.6-7.8,14.7-8-7.2,10.3-22.6,14.4-27.6,28.2-2.7,12.6,22.2-7.2,10,17.8-2.5,12,21.3.9,15.7,14.1-3.2,16,13.4,4.3,19.9,4.3,4.9,1.8-3.9,9.4,0,12.4,12.1,3.7,16.3-6.9,27.9,3.7,7.8-4.3,16.1-17.3,15.6.2,4,7.8,10.2-2.9,15.3-4.8,7.5,3.9.6,15.5,14.3,2.7,6.4-1.3,7.6,13.5,17,5.9,1.3-5.2,8.1-3.1,9.3-8.5-.4-7.3,7.2-.6,7.1-8-2.9-11.2,5.9-10.2,9.9-18.1.9-4.6-2.3-7.2-3.1-10.3,4.1-.3,8.9,3,8.8,8-2.9,14.8-15,29.7-27.2,38.6.9,9,9-.6.4,15.7,10.1,16.5,3.1,10.8-3.3,24.6,16.3,14.7,3.1,11.6.3,23.1,21.5,5.2-10.2,19.9,22.4,21,10.5,12.3-18.9,27.1,8.6,28.8,7.5,2.7-1.6,11.3-.6,15.4,11,2.5,9.9,12.9,18.3,17Z"/>
  <path class="st0" d="M162.8,271.3c-2-12,9.9,2.9,14,1.6,1.9,0,18.9-5.5,11.8,1.6-19,.2-.8,20.8-12.8,25.8-6-.2,3.5-12.5-3.3-19.9-2.6-2.8-9.3-4.6-9.8-9.2Z"/>
  <path class="st0" d="M137.8,534.9c-8.4-5.1-7.9-13.5-5.6-22-9.9-10.8,1.1-18.2,4.5-27.7,7.5-6.4.3-8.7-.6-15.9-2.7-15.6,12.7-27.7,25.1-22.1-16.7,4.7-30.1,18.4-11.7,31.3-6.7,3.8-9.4,11.1-9.5,18.2-8.9,3.7-8,10.8-.9,15.8-3.3,10.9-7.5,10.2-1.2,22.4Z"/>
</svg>
